<?xml version="1.0" standalone="no"?>
<!DOCTYPE svg PUBLIC "-//W3C//DTD SVG 20010904//EN"
 "http://www.w3.org/TR/2001/REC-SVG-20010904/DTD/svg10.dtd">
<svg version="1.0" xmlns="http://www.w3.org/2000/svg"
 width="858.000000pt" height="858.000000pt" viewBox="0 0 858.000000 858.000000"
 preserveAspectRatio="xMidYMid meet">
<metadata>
Created by potrace 1.16, written by Peter Selinger 2001-2019
</metadata>
<g transform="translate(0.000000,858.000000) scale(0.100000,-0.100000)"
fill="#000000" stroke="none">
<path d="M0 5624 c0 -2544 2 -2955 14 -2945 10 9 16 9 21 1 5 -8 10 -8 20 0
10 8 15 8 20 0 5 -8 10 -8 20 0 10 8 15 8 20 0 5 -8 10 -8 20 0 10 8 15 8 20
0 5 -8 11 -7 23 2 13 11 14 11 7 -2 -7 -12 -6 -13 6 -3 11 9 19 9 26 2 8 -8
13 -7 18 2 6 8 4 10 -5 4 -9 -5 -11 -4 -6 4 6 9 11 9 21 1 10 -8 15 -8 20 0 5
8 10 8 20 0 10 -8 15 -8 20 0 5 8 10 8 20 0 7 -6 16 -7 18 -3 3 5 41 8 84 8
43 -1 84 3 92 9 12 9 13 8 6 -4 -7 -12 -6 -13 6 -3 12 10 18 10 28 0 10 -9 12
-9 9 3 -2 11 11 14 69 15 39 0 75 4 80 9 5 5 2 6 -6 1 -10 -6 -12 -4 -7 4 6 9
11 9 21 1 7 -6 16 -7 19 -2 3 4 22 8 43 7 21 -1 44 3 52 9 12 9 13 8 6 -4 -7
-12 -6 -13 6 -3 12 10 18 10 28 0 10 -9 12 -9 9 3 -2 11 9 14 49 15 28 0 55 4
60 9 5 6 2 6 -7 1 -8 -5 -12 -4 -7 0 11 13 38 15 31 3 -5 -7 -2 -8 7 -2 8 5
26 9 40 9 14 0 34 7 44 15 15 12 17 12 10 1 -6 -11 -5 -12 6 -5 8 5 21 9 29 9
8 0 21 4 29 9 10 7 12 6 6 -4 -6 -10 -4 -11 6 -4 8 5 17 9 22 10 4 1 9 3 12 4
3 1 13 3 23 4 9 1 23 5 31 10 11 7 12 6 6 -5 -5 -8 2 -5 15 6 14 12 20 14 15
5 -7 -12 -6 -13 6 -4 8 6 26 10 41 9 15 -1 26 3 25 9 -1 5 12 10 29 11 17 0
39 7 49 15 15 12 17 12 10 1 -6 -11 -5 -12 6 -5 8 5 21 9 30 9 9 0 22 5 30 11
8 6 27 10 42 9 15 -1 30 3 34 8 4 6 1 7 -7 2 -8 -5 -11 -4 -7 2 4 6 20 9 37 8
17 -1 33 2 37 8 4 6 1 7 -8 2 -8 -5 -10 -4 -6 0 12 14 38 15 30 2 -4 -7 1 -6
10 2 9 7 17 10 17 6 0 -5 10 0 22 11 12 10 18 13 13 5 -6 -11 -5 -12 6 -5 8 5
21 9 29 9 8 0 22 5 30 10 8 5 21 10 28 11 8 2 21 6 30 10 9 4 24 8 33 8 9 1
23 7 32 15 10 7 17 10 17 6 0 -5 10 0 22 11 12 10 18 13 13 5 -6 -11 -5 -12 6
-5 8 5 19 9 24 9 6 1 9 6 8 11 -1 6 4 11 12 11 8 0 11 -5 8 -10 -4 -6 -1 -7 8
-1 8 5 19 9 24 9 6 1 9 6 8 12 -1 6 10 9 27 8 17 -1 28 2 27 8 -1 6 7 11 19
12 11 0 27 5 35 11 8 6 22 10 31 9 9 -2 22 3 29 11 6 8 15 12 19 9 5 -3 12 0
16 6 5 8 3 9 -6 4 -8 -5 -11 -4 -7 2 4 6 20 9 36 8 17 -1 29 0 28 4 -1 3 1 6
4 6 4 0 17 9 30 20 13 12 19 14 14 5 -7 -12 -6 -13 7 -3 8 7 18 9 22 5 4 -4 6
0 4 8 -2 8 5 14 17 15 11 0 27 5 35 10 8 5 20 10 25 10 6 1 9 6 8 12 -2 7 6
10 17 8 10 -2 24 3 30 10 6 7 20 12 30 10 11 -2 19 -1 17 3 -1 4 1 7 4 7 4 0
16 9 28 19 12 11 21 15 21 11 0 -4 9 0 20 10 11 10 20 14 20 10 0 -4 9 0 20
10 11 10 20 14 20 10 0 -4 9 0 21 11 12 10 24 19 28 19 3 0 5 3 4 7 -2 4 6 5
17 3 10 -2 24 3 30 11 7 7 16 11 21 8 5 -3 8 0 7 7 -2 7 6 13 18 14 11 0 28 6
36 12 8 7 19 9 23 5 5 -4 5 -2 2 4 -4 6 3 20 16 30 21 19 21 19 7 -1 -14 -19
-14 -20 6 -2 11 9 24 14 28 10 4 -5 6 -3 4 2 -2 6 0 10 3 10 4 0 16 9 28 19
12 11 21 15 21 11 0 -4 8 -1 18 8 10 10 22 14 26 10 4 -5 6 -1 4 7 -2 8 4 15
12 15 8 0 14 6 13 12 -1 6 8 10 20 9 13 -1 21 4 19 12 -1 8 2 11 8 7 17 -10
11 -58 -11 -90 -11 -16 -56 -102 -98 -190 -81 -166 -124 -233 -165 -260 -13
-9 -142 -56 -287 -106 -382 -130 -529 -188 -529 -209 0 -10 -16 -28 -35 -41
-19 -13 -35 -27 -35 -31 0 -19 26 -17 76 6 31 14 63 26 72 26 8 0 38 15 66 34
29 19 68 41 87 49 18 9 59 26 89 40 30 13 80 32 110 42 30 10 60 21 65 26 6 4
17 4 25 -1 8 -6 10 -10 4 -10 -6 0 -25 -13 -42 -30 -19 -18 -38 -27 -47 -24
-10 4 -13 2 -10 -8 5 -11 -1 -14 -23 -10 -18 2 -35 -2 -45 -12 -8 -9 -22 -16
-29 -16 -11 0 -25 -21 -45 -67 -3 -8 2 -13 11 -13 9 0 16 5 16 11 0 6 6 9 13
6 8 -3 27 5 43 19 16 13 37 23 47 24 9 0 17 5 17 10 0 6 7 10 15 10 8 0 15 6
15 13 0 8 3 8 9 -2 6 -9 6 -22 0 -33 -10 -18 -9 -19 13 -22 19 -2 33 -56 19
-78 -7 -11 -9 -28 -6 -38 3 -11 -1 -32 -9 -48 -8 -16 -20 -56 -25 -90 -5 -33
-14 -68 -20 -78 -14 -25 -56 -166 -53 -180 1 -6 -5 -29 -15 -50 -9 -21 -18
-70 -19 -107 -3 -57 0 -72 16 -90 l20 -21 0 23 c0 12 4 20 8 17 5 -3 17 29 27
72 24 104 45 172 53 172 4 0 15 37 25 83 10 45 25 103 33 129 8 26 17 70 20
97 5 59 44 152 79 189 14 15 33 35 42 44 9 10 18 16 20 14 5 -5 12 -142 13
-239 0 -53 4 -69 16 -74 9 -3 20 0 25 8 8 11 14 9 32 -12 52 -62 60 -73 60
-95 0 -13 6 -29 13 -35 8 -6 14 -15 14 -20 0 -5 12 -28 26 -50 14 -23 23 -43
20 -47 -3 -3 8 -13 24 -23 32 -20 41 -49 15 -49 -8 0 -15 -5 -15 -11 0 -6 -6
-9 -14 -6 -9 4 -14 0 -14 -11 0 -9 -3 -25 -7 -34 -5 -12 -2 -20 9 -24 9 -3 16
-17 16 -30 0 -17 4 -22 15 -18 16 7 21 -11 6 -20 -5 -4 -4 -17 2 -31 14 -30
31 -34 22 -5 -4 12 -2 20 5 20 7 0 10 6 7 14 -4 10 0 12 14 9 13 -4 19 0 19
11 0 9 5 16 10 16 6 0 10 10 10 22 0 17 3 19 12 10 9 -9 14 -7 24 6 12 15 12
15 7 -5 -4 -17 -1 -23 10 -23 8 0 18 6 20 13 4 8 11 6 24 -9 10 -12 28 -27 41
-33 12 -7 20 -16 17 -22 -4 -5 -1 -9 4 -9 6 0 11 -9 11 -20 0 -12 12 -26 32
-36 17 -9 40 -26 51 -38 10 -11 15 -14 11 -6 -7 13 -5 13 9 1 30 -24 21 29
-13 79 -17 25 -39 60 -51 77 -12 18 -25 33 -30 33 -5 0 -9 6 -9 14 0 7 -19 26
-42 42 -24 16 -51 38 -61 49 -38 44 -126 175 -176 262 -29 51 -56 95 -61 98
-5 3 -12 20 -15 38 -4 17 -15 41 -25 52 -11 11 -19 22 -19 25 0 3 -4 18 -10
33 -6 16 -8 39 -5 52 3 13 3 29 -1 36 -21 34 10 229 36 229 12 0 11 -17 -2
-42 -10 -18 -9 -20 6 -15 9 4 20 7 24 7 9 0 8 31 -2 47 -9 14 9 27 25 17 8 -5
9 -2 5 9 -3 10 -2 17 3 17 6 0 10 5 10 11 0 5 -5 7 -10 4 -6 -3 -10 -3 -10 1
0 15 150 323 161 329 4 3 5 -21 1 -52 -11 -102 -3 -257 24 -443 9 -60 22 -93
34 -85 5 3 10 2 10 -4 0 -5 6 -16 14 -24 8 -7 37 -63 65 -123 29 -60 62 -125
75 -144 75 -115 95 -151 115 -205 31 -83 104 -197 152 -236 22 -18 49 -51 59
-73 11 -23 19 -35 20 -27 0 12 3 11 18 -1 9 -9 23 -13 30 -11 11 4 51 -22 93
-62 9 -8 19 -15 22 -15 11 0 8 68 -2 72 -5 2 -11 19 -13 38 -3 31 1 37 29 49
28 13 31 18 26 44 -5 25 -3 29 10 24 8 -3 21 1 27 9 23 27 49 16 66 -26 12
-29 22 -40 34 -38 9 2 18 -1 19 -7 3 -15 33 -23 63 -18 18 4 43 -4 74 -21 25
-14 57 -26 71 -26 52 0 63 -15 58 -83 -3 -34 -5 -70 -6 -79 0 -10 -5 -18 -10
-18 -18 0 -71 -45 -85 -72 -18 -35 -18 -39 2 -31 15 5 15 3 -1 -20 -9 -15 -23
-27 -29 -27 -7 0 -18 -16 -26 -35 -8 -20 -18 -31 -24 -27 -6 3 30 -38 79 -91
50 -53 93 -97 97 -97 3 0 28 28 56 63 57 73 207 214 282 264 28 19 122 70 208
115 171 87 194 104 212 151 31 82 85 194 105 217 13 14 26 36 30 50 4 14 20
39 35 55 17 19 30 47 34 75 4 24 17 76 30 115 76 230 96 463 51 593 -14 39
-25 78 -25 87 0 35 -18 11 -24 -32 -18 -130 -56 -263 -101 -353 -30 -60 -52
-91 -131 -188 -15 -18 -40 -53 -55 -76 -16 -23 -44 -58 -63 -78 -18 -19 -41
-48 -49 -64 -8 -16 -31 -42 -51 -59 -20 -16 -36 -36 -36 -43 0 -13 -23 -42
-34 -42 -3 0 -6 7 -6 15 0 14 -3 13 -25 -2 -14 -11 -22 -25 -19 -34 3 -11 -5
-20 -26 -29 -16 -7 -30 -16 -30 -21 0 -5 -13 -8 -29 -7 -27 2 -29 5 -24 30 4
20 1 28 -8 28 -22 1 22 30 45 30 18 1 17 3 -6 16 -16 8 -28 19 -28 23 0 11
-19 9 -38 -3 -8 -5 -20 -2 -30 7 -9 8 -28 17 -42 19 -17 2 -24 8 -22 21 3 19
-6 21 -41 8 -30 -12 -50 0 -41 23 5 14 9 15 15 4 7 -10 9 -9 9 5 0 10 8 17 19
17 10 0 21 9 24 20 3 12 14 20 25 20 12 0 23 4 26 9 9 14 -22 34 -41 27 -15
-5 -14 -3 2 10 19 15 18 15 -20 9 -22 -4 -42 -8 -45 -9 -3 0 -7 4 -10 9 -3 6
9 11 27 13 17 2 37 11 45 19 11 14 11 15 -1 8 -40 -24 -111 -10 -111 21 0 13
-6 15 -27 9 l-28 -6 23 21 c12 11 36 23 54 25 17 2 36 11 41 20 6 12 16 15 33
11 14 -4 24 -2 24 4 0 5 7 10 15 10 8 0 22 11 31 25 9 14 21 25 26 25 6 0 5
-6 -2 -15 -7 -8 -9 -15 -5 -15 4 0 2 -7 -5 -15 -21 -26 -5 -27 43 -3 29 14 46
30 47 41 0 10 -4 15 -10 12 -6 -3 -10 -2 -10 4 0 5 20 8 45 6 41 -3 47 -1 55
21 5 13 15 24 22 24 9 0 8 3 -2 10 -10 6 -11 10 -2 10 6 0 14 -1 16 -2 2 -2
13 6 25 16 12 11 21 14 21 8 0 -7 5 -12 10 -12 6 0 10 9 10 19 0 21 28 35 52
26 15 -6 23 7 49 80 6 19 7 18 8 -3 1 -13 -4 -32 -9 -43 -11 -20 -4 -24 18
-10 8 4 13 14 12 22 -5 34 0 41 24 35 14 -3 27 -2 31 3 3 5 -3 12 -12 14 -17
4 -17 5 0 6 9 0 17 5 17 9 0 5 -13 7 -30 4 -18 -3 -30 0 -30 7 0 6 6 11 13 11
14 0 45 29 46 43 1 4 1 15 1 26 0 10 13 32 30 49 16 17 25 34 20 37 -6 3 -10
12 -10 18 0 8 3 8 8 2 4 -6 14 -10 22 -9 43 3 43 3 30 19 -15 18 -5 35 21 35
11 0 17 5 14 10 -4 6 -12 8 -18 4 -7 -3 1 5 16 19 25 21 26 25 12 37 -14 11
-14 15 0 36 8 13 15 33 15 44 0 12 9 24 23 29 16 6 28 23 36 53 7 23 22 55 32
70 14 19 16 28 7 31 -10 4 -9 8 2 16 11 8 16 7 18 -4 6 -27 17 -16 31 31 7 25
19 51 26 57 22 23 115 211 115 234 0 12 4 24 10 28 5 3 7 12 4 20 -3 7 2 25
11 38 9 14 15 31 14 39 -1 7 3 26 9 41 16 37 15 80 0 95 -10 10 -10 15 -1 20
18 11 34 60 21 64 -7 3 -5 9 4 19 8 8 13 20 11 26 -3 7 1 21 6 32 7 12 7 22 2
25 -11 7 -12 184 -1 244 9 50 2 92 -11 70 -5 -7 -6 -20 -3 -29 2 -9 -2 -24
-10 -32 -9 -8 -18 -34 -22 -56 -5 -34 -10 -40 -25 -36 -15 5 -17 1 -13 -25 4
-25 -1 -36 -29 -63 -42 -38 -74 -87 -58 -87 6 0 11 -5 11 -11 0 -8 -11 -9 -32
-5 -23 4 -28 3 -18 -3 12 -8 10 -14 -12 -33 -15 -13 -31 -35 -37 -50 -7 -19
-15 -26 -26 -22 -10 4 -18 -2 -24 -19 -5 -14 -14 -28 -20 -31 -6 -4 -8 -13 -4
-21 3 -11 1 -13 -10 -9 -17 6 -37 -23 -30 -44 3 -8 -1 -10 -11 -6 -12 4 -16 0
-16 -15 0 -13 -6 -21 -16 -21 -13 0 -14 -3 -4 -14 6 -8 10 -23 8 -33 -1 -10 1
-24 6 -31 7 -12 4 -12 -14 -2 -18 10 -20 14 -9 21 15 10 14 10 -18 14 -27 3
-27 1 -10 -25 10 -17 9 -22 -2 -29 -8 -6 -11 -16 -6 -31 4 -14 3 -20 -2 -17
-11 7 -11 -63 0 -80 4 -7 -1 -14 -13 -18 -12 -4 -20 -15 -20 -27 0 -12 3 -18
7 -15 8 9 32 -24 33 -45 0 -10 5 -18 10 -18 6 0 10 -12 11 -27 l0 -28 10 25
c8 19 12 22 19 10 5 -8 6 -18 3 -23 -3 -4 4 -11 15 -14 11 -2 22 -16 25 -29 5
-26 -7 -33 -17 -9 -3 8 -11 14 -18 13 -7 -2 -12 2 -11 8 1 6 -11 10 -27 9 -16
-1 -28 3 -27 9 1 6 -5 11 -13 11 -8 0 -16 -10 -18 -22 -2 -14 -8 -20 -18 -16
-8 3 -14 0 -14 -7 0 -6 -5 -8 -10 -5 -6 4 -7 11 -4 17 4 6 -1 8 -14 4 -23 -8
-39 8 -21 20 8 4 9 3 5 -4 -4 -7 -2 -12 3 -12 14 0 14 27 1 35 -5 3 -7 12 -4
19 6 16 -32 28 -64 19 -14 -3 -22 -1 -22 8 0 7 -2 10 -5 7 -10 -9 7 -38 22
-38 8 0 11 -4 8 -10 -3 -5 -15 -10 -26 -10 -16 0 -19 -4 -14 -21 5 -16 4 -19
-6 -14 -9 6 -11 4 -6 -8 3 -8 -1 -21 -9 -28 -12 -10 -12 -13 3 -24 23 -17 23
-45 1 -69 -13 -14 -15 -24 -7 -37 7 -15 6 -19 -6 -19 -15 0 -21 -31 -8 -44 4
-3 8 -22 9 -41 1 -31 0 -33 -18 -24 -23 13 -39 2 -18 -12 11 -7 7 -8 -15 -5
-16 3 -37 14 -46 26 -17 19 -17 19 -23 -6 -4 -14 -5 -28 -2 -32 2 -4 -14 -7
-35 -7 -21 -1 -39 3 -39 8 0 5 -7 4 -15 -3 -11 -10 -15 -10 -15 0 0 15 -25 7
-26 -8 -1 -7 -2 -17 -3 -23 0 -6 -8 -9 -16 -5 -9 3 -15 0 -15 -9 0 -8 -10 -19
-22 -25 -21 -10 -21 -10 -5 3 20 16 23 32 5 21 -8 -5 -7 0 2 11 14 17 13 18
-4 12 -10 -4 -25 -2 -33 5 -8 6 -13 7 -12 2 1 -5 1 -16 0 -24 -1 -12 -5 -11
-16 4 -18 24 -19 40 -2 30 6 -4 5 1 -4 10 -15 17 -18 16 -55 -3 l-39 -21 -3
26 c-3 18 -8 24 -19 20 -10 -4 -13 -2 -10 8 4 9 0 13 -10 12 -17 -3 -53 27
-53 43 0 6 -9 8 -19 6 -15 -3 -20 3 -23 30 -3 23 0 31 9 28 6 -3 17 4 24 16 9
14 17 17 25 10 8 -7 14 -6 19 1 5 8 15 4 31 -11 15 -14 29 -19 41 -15 15 6 15
9 3 17 -11 8 -9 9 10 4 14 -4 69 -9 123 -11 95 -3 98 -2 109 22 6 13 15 24 20
24 5 0 6 -4 3 -10 -11 -17 19 -11 45 10 21 17 22 20 7 20 -17 0 -17 1 -3 16
19 18 19 20 6 45 -6 10 -20 19 -31 19 -11 0 -18 4 -14 10 3 5 12 7 19 4 7 -3
16 1 19 9 4 10 -1 13 -20 9 -18 -3 -25 0 -30 17 -3 11 -12 21 -20 21 -12 0
-13 3 -4 13 6 8 8 17 4 20 -3 4 -1 7 5 7 7 0 12 5 12 11 0 8 -4 8 -12 2 -33
-25 -210 -44 -308 -33 -8 1 -35 -1 -60 -3 -48 -6 -120 8 -120 23 0 5 -7 7 -15
4 -10 -4 -15 0 -15 12 0 16 -2 17 -10 4 -7 -11 -10 -5 -10 25 0 30 -3 36 -10
25 -8 -13 -10 -12 -11 5 -1 11 -1 26 0 34 2 8 -2 10 -10 5 -8 -4 -10 -3 -5 4
4 6 1 20 -6 31 -22 36 0 43 123 41 63 -1 119 -2 124 -2 6 0 42 7 80 16 99 22
212 21 285 -4 53 -18 160 -24 160 -10 0 3 -26 19 -57 35 -31 17 -75 42 -97 58
-21 15 -45 27 -51 27 -7 0 -18 7 -25 15 -6 8 -15 14 -18 13 -28 -3 -72 4 -68
11 7 11 -13 9 -33 -3 -10 -6 -12 -5 -7 2 12 19 -15 14 -30 -5 -13 -17 -14 -17
-8 0 3 9 1 17 -5 17 -6 0 -11 -4 -11 -9 0 -6 -9 -8 -20 -6 -11 2 -18 0 -15 -6
4 -5 14 -9 23 -9 15 -1 15 -2 -1 -11 -27 -16 -50 -18 -65 -6 -10 8 -16 7 -22
-2 -4 -8 -13 -10 -20 -6 -7 4 -16 1 -21 -6 -7 -9 -7 -5 -3 13 5 24 3 28 -15
28 -12 0 -21 5 -21 12 0 6 -3 8 -7 5 -3 -4 -11 0 -17 8 -6 9 -22 17 -35 20
-31 6 -31 7 -9 28 16 15 19 15 24 2 4 -8 10 -15 16 -15 5 0 6 5 2 11 -4 8 0 7
15 -1 12 -6 19 -15 16 -21 -4 -5 1 -9 10 -9 9 0 13 -4 10 -10 -8 -13 25 -1 47
17 41 35 210 60 228 34 3 -4 28 -16 57 -25 28 -9 57 -24 63 -32 18 -21 43 -18
35 5 -10 31 14 35 27 4 6 -15 23 -38 36 -50 13 -12 21 -27 17 -33 -9 -14 13
-40 28 -35 7 3 23 -5 36 -16 19 -15 24 -29 23 -59 -2 -36 0 -39 20 -31 14 5
22 17 22 34 1 15 -2 27 -6 27 -4 0 -8 -9 -8 -19 0 -11 -4 -22 -9 -26 -6 -3 -9
17 -8 49 1 39 5 52 14 49 14 -6 11 8 -14 66 l-16 34 -13 -24 c-10 -19 -13 -20
-14 -6 0 9 -8 17 -17 17 -16 0 -16 2 -3 11 12 9 11 10 -7 6 -12 -3 -22 -2 -21
2 2 19 -4 31 -16 31 -7 0 -18 6 -24 13 -12 14 -50 15 -72 2 -10 -6 -12 -4 -7
8 4 10 1 17 -5 17 -9 0 -9 3 0 12 8 8 5 14 -14 25 -15 7 -30 10 -35 7 -5 -3
-9 0 -9 6 0 6 -4 8 -10 5 -6 -4 -10 5 -10 19 0 14 -5 26 -11 26 -5 0 -7 -5 -4
-10 4 -6 -4 -5 -19 1 -14 7 -23 16 -20 20 3 5 -1 9 -8 9 -10 0 -10 2 1 9 9 6
10 10 2 16 -14 8 -43 -13 -36 -25 3 -5 0 -12 -6 -16 -9 -5 -10 1 -5 20 6 23 3
26 -18 26 -14 0 -28 5 -31 10 -4 6 -11 8 -16 5 -5 -4 -17 -1 -26 5 -17 11 -17
11 -1 6 10 -3 18 -1 18 4 0 6 -6 10 -14 10 -8 0 -22 3 -32 7 -13 5 -15 3 -9
-7 5 -8 4 -11 -2 -7 -10 6 -45 -2 -86 -18 -12 -5 -17 -3 -15 6 2 7 32 25 68
40 57 23 76 26 154 23 67 -3 97 0 123 12 42 21 46 27 32 57 -22 48 -87 60
-141 27 -18 -11 -41 -20 -51 -20 -10 0 -16 -4 -13 -9 15 -24 -29 -18 -66 9
-22 17 -38 30 -34 30 4 0 1 6 -6 14 -7 8 -16 12 -20 9 -5 -2 -8 0 -8 6 0 6 -7
8 -15 5 -8 -4 -26 1 -40 10 l-25 17 20 21 c20 22 28 64 10 53 -15 -9 -12 8 5
31 8 10 15 26 15 34 0 8 10 20 23 25 22 10 26 27 8 33 -5 2 -12 -5 -15 -15 -2
-10 -4 -4 -3 12 1 17 -2 35 -5 41 -4 6 -4 21 -1 33 4 17 8 19 14 9 7 -10 9 -9
9 4 0 9 -7 24 -17 33 -14 14 -14 18 -2 26 8 4 14 12 15 16 0 4 4 16 9 27 5 12
3 21 -6 27 -12 8 -12 10 1 19 12 7 12 14 4 27 -13 22 -10 156 4 161 11 3 4 42
-7 42 -4 0 -7 14 -7 30 0 19 5 30 14 30 19 0 39 23 36 42 -1 11 3 15 14 11 9
-4 13 -2 9 4 -8 13 27 18 80 11 35 -5 66 -25 58 -39 -9 -14 26 -47 45 -42 15
4 17 -2 13 -57 -3 -43 -1 -60 6 -56 7 4 12 -2 13 -16 0 -13 2 -30 2 -38 1 -10
11 -15 29 -15 29 1 33 -6 17 -35 -7 -14 -6 -20 7 -24 9 -4 19 -2 23 3 9 15 51
9 46 -6 -3 -7 -1 -13 4 -13 6 0 10 5 10 10 0 7 6 7 20 0 12 -6 17 -17 14 -28
-4 -10 -3 -13 3 -6 10 13 65 25 57 13 -10 -16 83 -13 181 6 33 7 36 9 20 16
-19 7 -19 8 3 8 12 1 22 5 22 10 0 5 10 11 22 13 38 5 31 24 -7 20 -23 -3 -35
0 -35 8 0 7 -6 5 -16 -5 -11 -11 -20 -13 -27 -6 -5 5 -16 7 -25 4 -10 -4 -13
-2 -8 5 4 7 19 12 34 13 16 0 21 3 12 6 -27 11 -29 26 -7 54 12 14 27 34 32
44 8 14 18 16 43 10 37 -8 42 -29 10 -46 -15 -8 -18 -14 -10 -17 7 -2 21 3 31
12 18 16 144 29 134 14 -6 -10 1 -10 31 2 18 6 26 6 26 -1 0 -6 5 -7 11 -3 8
4 0 13 -20 23 -17 9 -28 21 -24 26 4 4 0 5 -9 2 -11 -4 -18 -1 -18 7 0 8 -25
17 -67 24 -89 15 -199 45 -210 56 -4 5 2 6 14 2 19 -6 22 -4 20 21 -2 27 0 28
39 27 57 -1 189 -65 237 -115 21 -21 42 -39 48 -39 6 0 3 7 -6 16 -12 12 -13
19 -4 30 8 10 8 14 0 14 -6 0 -18 14 -26 31 -19 36 -77 64 -150 72 -50 5 -109
24 -90 28 29 6 63 3 58 -5 -4 -5 1 -7 10 -3 10 3 17 2 17 -4 0 -6 10 -9 23 -8
12 2 28 0 35 -4 7 -5 12 -3 12 3 0 7 7 9 16 6 8 -3 12 -2 9 4 -3 6 3 10 14 10
10 0 21 5 23 10 4 12 138 18 156 6 6 -4 12 -3 12 3 0 5 -8 15 -17 21 -12 7
-14 13 -6 16 7 3 2 14 -14 30 l-25 25 21 21 c25 23 17 39 -31 64 -16 8 -26 19
-23 24 4 6 1 10 -4 10 -6 0 -11 -6 -12 -12 0 -7 -5 -4 -10 7 -12 24 -67 62
-103 71 -14 3 -30 12 -36 19 -14 17 -41 8 -33 -11 4 -10 -3 -14 -27 -14 -20 0
-29 4 -24 11 4 8 1 8 -12 1 -11 -5 -25 -7 -33 -4 -12 4 -12 3 0 -11 8 -8 18
-12 23 -9 5 3 6 0 2 -6 -5 -9 -15 -8 -37 3 -21 12 -34 13 -48 5 -11 -5 -30
-10 -43 -10 -18 0 -20 2 -8 10 23 15 7 12 -36 -6 -38 -16 -65 -21 -132 -23
-19 -1 -31 -5 -27 -11 4 -6 -2 -7 -16 -2 -25 10 -79 3 -79 -9 0 -5 -12 -7 -26
-5 -30 6 -63 -5 -62 -19 2 -18 -33 -17 -53 1 -17 15 -19 15 -19 1 0 -12 -8
-16 -30 -14 -16 1 -30 5 -30 8 0 4 -7 10 -16 13 -10 4 -13 2 -8 -6 5 -7 2 -9
-9 -5 -10 4 -14 2 -11 -6 3 -8 -6 -13 -23 -14 -23 -1 -25 0 -8 6 13 5 0 8 -37
7 -32 0 -58 -5 -58 -9 0 -5 -7 -3 -16 4 -25 21 -54 22 -54 1 -1 -16 -1 -16
-11 1 -6 10 -8 34 -5 53 4 21 3 34 -4 34 -5 0 -10 7 -10 15 0 8 3 15 8 15 4 0
15 14 24 31 12 20 22 28 30 22 7 -4 20 -6 29 -5 9 2 20 -5 23 -15 6 -15 8 -15
16 -3 7 10 10 11 10 3 0 -7 5 -13 11 -13 6 0 8 7 5 16 -6 15 -4 15 10 3 14
-11 15 -10 12 11 -2 16 -9 24 -18 22 -12 -3 -12 -1 -3 9 10 10 16 7 32 -12 22
-27 41 -19 20 8 -7 10 -9 15 -4 10 4 -4 17 0 27 10 10 9 18 13 18 8 0 -4 6 -2
14 4 11 10 14 7 12 -12 0 -16 -6 -24 -16 -22 -23 4 -30 -4 -21 -23 5 -9 16
-33 25 -52 9 -20 16 -27 16 -17 0 10 5 15 10 12 6 -3 10 -1 10 5 0 6 -7 10
-16 8 -10 -2 -19 3 -22 11 -3 10 0 12 12 8 9 -4 24 -10 33 -14 12 -5 15 -2 10
10 -3 9 -2 19 4 22 5 4 6 11 3 17 -5 7 -1 9 9 5 11 -4 14 -2 11 7 -3 7 2 19
11 26 13 11 15 10 10 -2 -5 -11 4 -15 40 -15 31 -1 48 4 52 13 3 8 12 14 20
14 8 0 11 -4 8 -10 -8 -13 1 -13 26 1 17 9 18 13 7 26 -12 15 -11 15 9 3 18
-12 20 -17 10 -29 -9 -11 -9 -13 0 -8 6 4 13 2 15 -5 3 -9 6 -9 12 0 4 7 2 12
-4 12 -20 0 18 56 47 69 17 8 23 15 15 18 -10 4 -10 8 -1 19 9 11 9 14 0 14
-7 0 -9 5 -5 12 5 7 11 5 21 -7 12 -17 13 -17 13 9 0 18 -4 25 -12 21 -7 -4
-5 0 5 8 23 19 22 22 -8 22 -16 0 -23 -5 -20 -12 2 -7 -2 -13 -10 -13 -8 0
-15 -5 -15 -11 0 -8 -4 -8 -14 0 -10 8 -16 9 -21 1 -3 -5 -12 -10 -18 -10 -7
1 -1 10 12 20 13 11 18 20 12 20 -18 0 -13 18 7 22 14 3 13 5 -6 10 -12 3 -20
2 -16 -3 3 -5 -2 -12 -11 -15 -12 -5 -13 -9 -5 -14 8 -5 7 -9 -3 -13 -15 -6
-16 4 -2 36 4 10 5 21 1 24 -3 4 -6 -1 -6 -9 0 -9 -7 -19 -16 -22 -22 -8 -26
-8 -19 4 4 7 -3 7 -20 0 -30 -11 -45 -6 -45 16 0 8 -4 13 -9 10 -14 -9 0 -57
17 -54 8 2 17 -4 18 -12 3 -10 2 -11 -2 -2 -5 10 -10 9 -21 -5 -8 -10 -12 -12
-8 -5 3 6 2 12 -3 12 -6 0 -13 -12 -17 -27 -7 -26 -8 -26 -15 -8 -4 11 -3 22
1 23 5 2 9 10 9 18 0 10 -5 9 -20 -6 -11 -11 -25 -20 -31 -20 -7 0 -8 -11 -4
-30 6 -29 0 -36 -27 -31 -5 0 -8 -4 -8 -10 0 -5 -4 -8 -9 -4 -5 3 -8 19 -6 35
2 17 0 30 -5 30 -6 0 -10 -9 -10 -19 0 -35 -20 -34 -21 1 -2 46 1 62 14 71 7
5 4 6 -8 3 -16 -5 -23 1 -33 27 -8 17 -21 46 -29 62 -16 30 -16 30 4 12 11 -9
23 -14 28 -10 4 5 5 0 2 -9 -3 -10 -2 -20 3 -23 9 -6 15 16 11 38 -2 10 31 43
38 39 3 -2 10 -9 14 -15 6 -8 7 -7 4 3 -2 8 -9 15 -15 15 -29 0 -19 15 17 26
23 7 41 16 41 21 0 5 -4 7 -9 3 -6 -3 -9 4 -8 15 1 12 6 19 14 16 7 -3 13 -1
13 4 0 6 -5 10 -10 10 -6 0 -6 6 2 13 10 12 15 12 26 0 16 -15 32 -17 32 -3 0
6 -5 10 -11 10 -5 0 -7 5 -4 10 4 6 14 10 23 9 10 -1 30 3 46 10 16 6 31 10
33 7 2 -2 -9 -8 -25 -14 -25 -8 -29 -14 -25 -36 4 -21 2 -25 -11 -20 -9 4 -16
1 -16 -6 0 -9 -6 -7 -19 4 -18 17 -20 17 -29 -1 -16 -31 -23 -73 -12 -73 10 0
14 14 11 39 -2 7 2 10 8 6 7 -4 8 1 4 12 -6 15 -4 16 9 5 8 -7 23 -10 32 -6
12 5 15 2 10 -9 -4 -12 -1 -14 16 -10 15 4 18 8 9 14 -9 5 -2 12 22 23 19 9
24 13 13 11 -21 -5 -42 20 -29 33 3 3 5 0 5 -6 0 -7 5 -12 11 -12 5 0 7 5 4
11 -4 6 2 13 13 16 12 3 18 11 16 18 -3 7 -1 16 5 20 7 4 8 0 4 -11 -5 -14 -3
-15 18 -5 20 10 21 10 9 -1 -8 -7 -16 -20 -16 -29 -1 -14 4 -15 30 -8 17 5 32
9 32 9 1 0 4 7 8 15 5 13 2 13 -19 -1 -14 -9 -25 -12 -25 -6 0 5 8 13 17 16
12 5 14 9 6 14 -14 9 30 63 50 61 9 0 9 -2 0 -6 -7 -2 -13 -9 -13 -15 0 -6 6
-8 14 -5 9 4 17 -1 19 -11 3 -9 5 -3 6 14 1 30 4 32 48 40 26 5 47 14 47 19 0
6 6 17 14 25 10 9 11 15 4 18 -13 4 31 52 48 52 5 0 10 4 10 9 0 4 -12 7 -27
5 -16 -2 -22 -1 -15 2 6 3 12 12 12 19 0 7 6 16 13 18 7 3 4 6 -7 6 -15 1 -16
4 -6 16 10 12 10 15 -1 15 -9 1 -8 4 4 11 9 6 15 14 12 20 -4 5 5 14 19 21 14
6 26 15 26 20 0 5 5 6 12 2 7 -5 26 -9 43 -11 62 -6 81 -10 101 -21 12 -6 24
-9 27 -6 3 3 15 -3 27 -14 13 -12 29 -18 42 -14 17 4 20 2 15 -11 -6 -16 42
-77 61 -77 14 0 22 -24 15 -49 -3 -12 0 -22 6 -22 6 -1 16 -2 23 -3 6 0 13 -7
16 -15 3 -10 0 -12 -12 -8 -13 5 -16 3 -12 -11 3 -9 8 -29 12 -44 3 -16 9 -26
14 -23 4 2 12 -7 18 -20 8 -17 8 -25 1 -25 -6 0 -7 -5 -4 -10 5 -8 12 -7 23 2
10 7 14 9 10 4 -4 -5 -1 -15 7 -23 8 -8 15 -24 15 -35 0 -17 2 -18 15 -8 13
11 15 7 15 -26 1 -48 19 -78 37 -59 7 7 9 16 6 19 -4 3 -1 6 6 6 6 0 14 -8 17
-17 3 -10 9 -25 14 -35 6 -11 5 -18 -6 -22 -10 -4 -12 -2 -8 6 5 7 3 8 -5 4
-20 -12 18 -47 43 -41 12 3 16 2 9 -1 -7 -3 -9 -12 -6 -21 5 -12 3 -14 -8 -8
-12 8 -12 6 -1 -8 8 -9 16 -35 18 -59 3 -23 8 -46 10 -50 3 -5 2 -8 -3 -7 -21
4 -25 -2 -9 -14 16 -12 17 -16 5 -35 -8 -12 -20 -20 -26 -17 -7 2 -13 -1 -13
-8 0 -9 -2 -9 -8 0 -4 6 -8 -13 -9 -43 -2 -35 1 -53 7 -49 6 4 8 11 4 16 -6
10 32 59 46 59 11 0 -6 -108 -20 -125 -14 -17 -23 -130 -12 -149 3 -6 5 -33 4
-60 -1 -41 2 -34 13 34 7 47 10 89 5 93 -4 5 -2 21 6 35 8 15 14 42 14 61 0
18 7 76 16 129 12 70 15 132 11 236 -5 153 -27 246 -87 381 -25 56 -28 70 -18
83 11 13 11 14 -2 7 -9 -5 -8 0 4 13 11 12 16 22 11 22 -4 0 -1 8 6 17 12 15
12 16 -1 8 -8 -4 -5 3 8 17 16 18 20 28 12 33 -8 5 -5 14 10 30 15 16 18 25
10 30 -8 5 -5 14 10 30 15 16 18 25 10 30 -8 5 -6 13 6 26 9 10 14 19 9 19 -4
0 -1 8 6 17 12 15 12 16 -1 8 -9 -5 -8 0 4 13 11 12 16 22 11 22 -4 0 -1 8 6
17 12 15 12 16 -1 8 -9 -5 -8 0 4 13 11 12 16 22 11 22 -4 0 -1 8 6 17 10 12
10 15 1 9 -7 -4 -4 8 7 27 15 27 17 38 8 47 -9 10 -9 11 1 6 8 -5 12 0 12 16
0 13 5 29 11 35 8 8 8 13 -1 18 -8 5 -6 12 6 26 9 10 14 19 9 19 -4 0 -1 8 6
17 8 10 9 14 2 10 -7 -4 -5 6 5 25 19 38 24 60 12 53 -11 -7 -7 15 5 35 5 8
10 18 11 23 1 4 2 8 4 10 6 8 7 36 0 32 -13 -8 -6 21 9 39 7 9 10 16 6 16 -4
0 -1 8 6 17 12 14 12 16 0 8 -11 -6 -12 -5 -5 6 5 8 9 22 10 32 1 9 3 19 4 22
1 3 4 10 5 15 1 6 3 11 5 13 6 8 7 36 0 32 -11 -7 -7 15 5 35 5 8 10 18 11 23
1 4 2 8 4 10 6 8 7 36 0 32 -10 -6 -7 21 3 31 4 4 7 17 7 29 0 12 3 25 7 29
10 9 12 56 2 51 -8 -5 -6 10 4 35 4 8 8 29 11 45 2 17 5 30 6 30 1 0 3 8 5 18
2 9 0 15 -5 12 -7 -4 -6 24 0 33 3 3 7 36 9 68 1 17 5 23 14 18 9 -6 9 -5 0 8
-7 8 -10 18 -6 22 10 9 11 76 2 70 -9 -5 -5 23 4 32 12 13 8 36 -5 28 -10 -6
-10 -4 0 8 7 9 14 47 15 85 2 37 6 73 10 80 4 6 3 14 -3 18 -6 4 -7 12 -3 18
4 7 8 54 8 104 l1 93 -2953 0 -2953 0 0 -2956z m4865 796 c-3 -5 -14 -10 -23
-9 -14 0 -13 2 3 9 27 11 27 11 20 0z m-45 -54 c0 -2 -7 -7 -16 -10 -8 -3 -12
-2 -9 4 6 10 25 14 25 6z m-305 -112 c-9 -9 -19 -13 -23 -10 -3 4 0 11 8 16
24 15 33 11 15 -6z m985 -102 c0 -15 -2 -15 -10 -2 -13 20 -13 33 0 25 6 -3
10 -14 10 -23z m-1070 3 c-7 -8 -20 -14 -29 -14 -13 1 -13 2 2 6 9 2 17 9 17
14 0 5 5 9 11 9 8 0 8 -5 -1 -15z m-85 -35 c-3 -5 -12 -10 -18 -10 -7 0 -6 4
3 10 19 12 23 12 15 0z m15 -31 c0 -11 -4 -18 -10 -14 -5 3 -7 12 -3 20 7 21
13 19 13 -6z m-34 -87 c-1 -9 3 -17 7 -17 5 0 14 -11 22 -24 15 -28 3 -76 -21
-85 -8 -3 -14 -14 -14 -24 0 -10 -6 -26 -13 -37 -13 -17 -14 -16 -13 6 1 24 7
35 39 70 21 23 22 39 2 39 -8 0 -15 5 -15 11 0 6 7 8 16 5 8 -3 12 -2 9 4 -9
14 -32 12 -39 -2 -3 -7 -2 0 1 16 3 17 2 27 -3 23 -6 -3 -10 2 -10 12 0 9 8
18 16 18 9 1 16 -6 16 -15z m-54 -34 c-7 -7 -12 -8 -12 -2 0 14 12 26 19 19 2
-3 -1 -11 -7 -17z m333 -8 c3 -5 1 -10 -4 -10 -6 0 -11 5 -11 10 0 6 2 10 4
10 3 0 8 -4 11 -10z m-308 -61 c0 -21 -3 -26 -9 -16 -4 9 -5 22 -2 31 9 23 11
20 11 -15z m-37 -29 c0 -5 -5 -10 -11 -10 -5 0 -7 5 -4 10 3 6 8 10 11 10 2 0
4 -4 4 -10z m241 -13 c-10 -9 -11 -8 -5 6 3 10 9 15 12 12 3 -3 0 -11 -7 -18z
m193 7 c3 -8 2 -12 -4 -9 -6 3 -10 10 -10 16 0 14 7 11 14 -7z m-347 -34 c-5
-33 -17 -35 -14 -2 1 16 5 28 9 26 4 -3 6 -14 5 -24z m307 14 c3 -8 2 -12 -4
-9 -6 3 -10 10 -10 16 0 14 7 11 14 -7z m-254 1 c0 -3 -9 -15 -20 -27 -22 -24
-26 -18 -10 13 10 17 30 27 30 14z m64 -7 c-22 -34 -38 -47 -46 -35 -12 18
-10 27 5 21 8 -3 20 2 27 11 15 18 24 20 14 3z m121 -28 c3 -5 1 -10 -4 -10
-6 0 -11 5 -11 10 0 6 2 10 4 10 3 0 8 -4 11 -10z m-30 -20 c8 -13 -5 -13 -25
0 -13 8 -13 10 2 10 9 0 20 -4 23 -10z m-145 -60 c0 -5 -4 -10 -10 -10 -5 0
-10 5 -10 10 0 6 5 10 10 10 6 0 10 -4 10 -10z m-279 -33 c-10 -9 -11 -8 -5 6
3 10 9 15 12 12 3 -3 0 -11 -7 -18z m69 -143 c0 -8 -19 -13 -24 -6 -3 5 1 9 9
9 8 0 15 -2 15 -3z m1139 -138 c-2 -2 -17 -6 -34 -10 -22 -5 -26 -4 -15 4 14
9 59 15 49 6z m-1465 -257 c28 -22 34 -39 14 -39 -7 0 -36 -11 -64 -24 l-52
-24 27 53 c14 30 31 54 37 54 6 1 23 -8 38 -20z m1033 -65 c-3 -3 -12 -4 -19
-1 -8 3 -5 6 6 6 11 1 17 -2 13 -5z m-457 -814 c0 -5 -7 -7 -15 -4 -8 4 -15 8
-15 10 0 2 7 4 15 4 8 0 15 -4 15 -10z m-266 -146 c8 -22 8 -26 -3 -19 -5 3
-13 0 -17 -6 -5 -8 -9 -7 -15 2 -8 13 6 39 21 39 4 0 11 -7 14 -16z m322 -133
c-4 -6 -13 -11 -19 -11 -8 0 -7 3 2 9 8 5 10 14 6 22 -6 11 -5 11 5 2 7 -6 9
-16 6 -22z m-41 -1 c3 -6 -1 -7 -9 -4 -18 7 -21 14 -7 14 6 0 13 -4 16 -10z
m750 -279 c-8 -14 -25 -14 -25 0 0 5 5 7 10 4 6 -3 10 -1 10 6 0 7 3 10 6 6 3
-3 3 -10 -1 -16z m25 -21 c0 -5 -5 -10 -11 -10 -5 0 -7 5 -4 10 3 6 8 10 11
10 2 0 4 -4 4 -10z m36 -68 c-4 -21 -23 -27 -41 -12 -11 9 -12 16 -5 25 14 17
49 7 46 -13z m-46 -32 c0 -5 -4 -10 -10 -10 -5 0 -10 5 -10 10 0 6 5 10 10 10
6 0 10 -4 10 -10z m-90 -31 c0 -12 -37 -12 -45 0 -3 5 3 11 12 13 21 5 33 0
33 -13z m-752 -124 c-3 -3 -9 2 -12 12 -6 14 -5 15 5 6 7 -7 10 -15 7 -18z
m502 -55 c0 -5 -7 -7 -15 -4 -8 4 -15 8 -15 10 0 2 7 4 15 4 8 0 15 -4 15 -10z
m21 -483 c-8 -8 -11 -7 -11 4 0 20 13 34 18 19 3 -7 -1 -17 -7 -23z m-2217
-28 c-36 -38 -91 -66 -105 -52 -6 6 0 15 18 24 15 8 37 24 49 37 13 12 33 22
45 22 22 0 22 -1 -7 -31z m146 27 c0 -3 -4 -8 -10 -11 -5 -3 -10 -1 -10 4 0 6
5 11 10 11 6 0 10 -2 10 -4z m1864 -131 c3 -9 0 -15 -8 -15 -7 0 -13 7 -13 15
0 8 4 15 8 15 4 0 9 -7 13 -15z m-224 -420 c0 -8 -7 -15 -15 -15 -9 0 -12 6
-9 15 4 8 10 15 15 15 5 0 9 -7 9 -15z m-1400 -201 c0 -8 -4 -12 -10 -9 -5 3
-10 10 -10 16 0 5 5 9 10 9 6 0 10 -7 10 -16z m-5 -34 c3 -5 1 -10 -4 -10 -6
0 -11 5 -11 10 0 6 2 10 4 10 3 0 8 -4 11 -10z"/>
<path d="M4958 6565 c-7 -32 8 -43 16 -12 8 30 7 37 -3 37 -5 0 -11 -11 -13
-25z"/>
<path d="M4716 6285 c-3 -8 4 -12 20 -11 29 1 32 12 5 19 -11 3 -22 -1 -25 -8z"/>
<path d="M4620 6219 c0 -5 5 -7 10 -4 6 3 10 8 10 11 0 2 -4 4 -10 4 -5 0 -10
-5 -10 -11z"/>
<path d="M5421 6144 c0 -11 3 -14 6 -6 3 7 2 16 -1 19 -3 4 -6 -2 -5 -13z"/>
<path d="M4512 6118 c-7 -7 -12 -16 -12 -21 0 -5 7 -1 16 8 9 9 14 18 12 20
-2 3 -10 -1 -16 -7z"/>
<path d="M4540 6120 c0 -5 5 -10 10 -10 6 0 10 5 10 10 0 6 -4 10 -10 10 -5 0
-10 -4 -10 -10z"/>
<path d="M4465 6090 c-3 -5 -1 -10 4 -10 6 0 11 5 11 10 0 6 -2 10 -4 10 -3 0
-8 -4 -11 -10z"/>
<path d="M5470 6073 c0 -13 29 -38 35 -31 3 3 -4 13 -15 23 -11 10 -20 13 -20
8z"/>
<path d="M4608 6033 c7 -3 16 -2 19 1 4 3 -2 6 -13 5 -11 0 -14 -3 -6 -6z"/>
<path d="M5500 6011 c0 -6 5 -13 10 -16 6 -3 10 1 10 9 0 9 -4 16 -10 16 -5 0
-10 -4 -10 -9z"/>
<path d="M4565 5990 c-3 -6 1 -7 9 -4 18 7 21 14 7 14 -6 0 -13 -4 -16 -10z"/>
<path d="M4826 5965 c-3 -8 -1 -15 4 -15 13 0 22 18 11 24 -5 3 -11 -1 -15 -9z"/>
<path d="M4450 5950 c-9 -6 -10 -10 -3 -10 6 0 15 5 18 10 8 12 4 12 -15 0z"/>
<path d="M5554 5936 c0 -13 4 -22 9 -19 10 6 9 31 -2 37 -5 3 -8 -5 -7 -18z"/>
<path d="M5513 5921 c-23 -19 -29 -31 -15 -31 4 0 15 12 25 25 21 30 19 31
-10 6z"/>
<path d="M4431 5899 c-10 -18 -10 -23 0 -30 7 -4 17 -5 22 -2 5 3 4 9 -2 13
-7 3 -9 14 -5 23 9 24 1 21 -15 -4z"/>
<path d="M4800 5889 c0 -5 5 -7 10 -4 6 3 10 8 10 11 0 2 -4 4 -10 4 -5 0 -10
-5 -10 -11z"/>
<path d="M5510 5870 c0 -5 4 -10 9 -10 6 0 13 5 16 10 3 6 -1 10 -9 10 -9 0
-16 -4 -16 -10z"/>
<path d="M4729 5823 c-13 -15 -12 -15 9 -4 23 12 28 21 13 21 -5 0 -15 -7 -22
-17z"/>
<path d="M4540 5740 c-9 -6 -10 -10 -3 -10 6 0 15 5 18 10 8 12 4 12 -15 0z"/>
<path d="M4370 5671 c0 -5 5 -13 10 -16 6 -3 10 -2 10 4 0 5 -4 13 -10 16 -5
3 -10 2 -10 -4z"/>
<path d="M4441 5664 c0 -11 3 -14 6 -6 3 7 2 16 -1 19 -3 4 -6 -2 -5 -13z"/>
<path d="M4411 5603 c8 -13 20 -23 28 -23 8 0 12 1 10 3 -2 1 -15 11 -28 22
l-24 20 14 -22z"/>
<path d="M4470 5610 c0 -5 5 -10 10 -10 6 0 10 5 10 10 0 6 -4 10 -10 10 -5 0
-10 -4 -10 -10z"/>
<path d="M5365 5480 c3 -5 8 -10 11 -10 2 0 4 5 4 10 0 6 -5 10 -11 10 -5 0
-7 -4 -4 -10z"/>
<path d="M5672 5423 c-33 -16 -92 -82 -92 -103 0 -29 101 29 138 80 12 16 22
32 22 35 0 10 -35 4 -68 -12z"/>
<path d="M5348 5353 c7 -3 16 -2 19 1 4 3 -2 6 -13 5 -11 0 -14 -3 -6 -6z"/>
<path d="M5747 5314 l-25 -36 41 -119 c23 -66 45 -119 49 -119 13 0 9 101 -7
165 -8 33 -14 79 -15 103 0 23 -4 42 -8 42 -5 0 -20 -16 -35 -36z"/>
<path d="M4506 5231 c-3 -5 1 -11 9 -14 9 -4 12 -1 8 9 -6 16 -10 17 -17 5z"/>
<path d="M5137 5125 c-4 -8 -3 -16 1 -19 4 -3 9 4 9 15 2 23 -3 25 -10 4z"/>
<path d="M4510 5116 c0 -2 7 -6 15 -10 8 -3 15 -1 15 4 0 6 -7 10 -15 10 -8 0
-15 -2 -15 -4z"/>
<path d="M5097 5099 c7 -7 15 -10 18 -7 3 3 -2 9 -12 12 -14 6 -15 5 -6 -5z"/>
<path d="M4516 5086 c7 -18 13 -20 34 -6 9 6 10 10 3 10 -6 0 -19 3 -27 6 -12
5 -15 2 -10 -10z"/>
<path d="M5075 5080 c3 -5 11 -10 16 -10 6 0 7 5 4 10 -3 6 -11 10 -16 10 -6
0 -7 -4 -4 -10z"/>
<path d="M5625 5060 c-8 -13 -3 -90 6 -90 4 0 17 -14 29 -31 21 -28 21 -34 10
-77 -7 -26 -28 -68 -47 -95 -38 -54 -41 -67 -13 -67 14 0 25 12 36 40 12 30
24 42 50 50 70 24 84 108 30 180 -75 98 -89 110 -101 90z"/>
<path d="M4540 5044 c0 -8 5 -12 10 -9 6 4 8 11 5 16 -9 14 -15 11 -15 -7z"/>
<path d="M4570 5024 c0 -8 5 -12 10 -9 6 4 8 11 5 16 -9 14 -15 11 -15 -7z"/>
<path d="M4673 5003 c4 -3 1 -13 -6 -22 -11 -14 -10 -14 6 -2 20 15 22 31 5
31 -6 0 -8 -3 -5 -7z"/>
<path d="M4298 4679 c-19 -11 -24 -29 -8 -29 5 0 14 9 20 20 12 23 12 23 -12
9z"/>
<path d="M4690 4670 c6 -11 12 -20 14 -20 2 0 2 9 -1 20 -3 11 -9 20 -15 20
-5 0 -4 -9 2 -20z"/>
<path d="M4725 4596 c3 -20 7 -52 9 -71 5 -33 50 -105 66 -105 10 0 4 58 -9
85 -5 11 -12 32 -15 47 -4 15 -17 39 -31 54 l-24 26 4 -36z"/>
<path d="M5330 4445 c-8 -9 -8 -15 -2 -15 12 0 26 19 19 26 -2 2 -10 -2 -17
-11z"/>
<path d="M4373 4027 c0 -8 6 -14 14 -14 9 0 10 4 2 14 -6 7 -12 13 -14 13 -1
0 -2 -6 -2 -13z"/>
<path d="M4310 3770 c0 -18 4 -29 10 -25 6 3 10 15 10 25 0 10 -4 22 -10 25
-6 4 -10 -7 -10 -25z"/>
<path d="M4805 3531 c9 -9 55 -9 50 0 -3 5 -17 8 -30 7 -13 -1 -22 -4 -20 -7z"/>
<path d="M4405 3290 c3 -5 11 -10 16 -10 6 0 7 5 4 10 -3 6 -11 10 -16 10 -6
0 -7 -4 -4 -10z"/>
<path d="M5045 3070 c3 -5 8 -10 11 -10 2 0 4 5 4 10 0 6 -5 10 -11 10 -5 0
-7 -4 -4 -10z"/>
<path d="M5044 3025 c-18 -13 -18 -14 4 -8 12 3 25 9 28 14 8 14 -10 11 -32
-6z"/>
<path d="M5048 2933 c7 -3 16 -2 19 1 4 3 -2 6 -13 5 -11 0 -14 -3 -6 -6z"/>
<path d="M3017 2889 c4 -13 8 -18 11 -10 2 7 -1 18 -6 23 -8 8 -9 4 -5 -13z"/>
<path d="M3030 2851 c0 -6 4 -13 10 -16 6 -3 7 1 4 9 -7 18 -14 21 -14 7z"/>
<path d="M4789 2793 c-13 -16 -12 -17 4 -4 16 13 21 21 13 21 -2 0 -10 -8 -17
-17z"/>
<path d="M2171 2693 c-7 -8 -11 -16 -8 -19 2 -2 10 2 17 11 17 20 9 27 -9 8z"/>
<path d="M4448 2623 c7 -3 16 -2 19 1 4 3 -2 6 -13 5 -11 0 -14 -3 -6 -6z"/>
<path d="M4390 2610 c0 -13 11 -13 30 0 12 8 11 10 -7 10 -13 0 -23 -4 -23
-10z"/>
<path d="M1962 2594 c-7 -8 -8 -14 -3 -14 10 0 25 19 20 25 -2 1 -10 -3 -17
-11z"/>
<path d="M1831 2518 c-43 -46 -15 -48 34 -3 34 30 36 35 17 35 -11 0 -35 -15
-51 -32z"/>
<path d="M1762 2455 c-15 -32 -15 -35 -1 -35 5 0 7 5 4 10 -3 6 -2 10 3 10 5
0 12 9 15 20 7 29 -8 25 -21 -5z"/>
<path d="M4648 2383 c7 -3 16 -2 19 1 4 3 -2 6 -13 5 -11 0 -14 -3 -6 -6z"/>
<path d="M4655 2340 c3 -5 8 -10 11 -10 2 0 4 5 4 10 0 6 -5 10 -11 10 -5 0
-7 -4 -4 -10z"/>
<path d="M1150 2248 c-45 -19 -90 -54 -90 -70 0 -19 51 -6 77 20 15 16 36 33
47 39 38 21 11 30 -34 11z"/>
<path d="M2890 2180 c0 -5 5 -10 11 -10 5 0 7 5 4 10 -3 6 -8 10 -11 10 -2 0
-4 -4 -4 -10z"/>
<path d="M871 2121 c-8 -5 -9 -11 -3 -15 5 -3 12 1 16 9 6 17 6 18 -13 6z"/>
<path d="M791 2084 c-34 -28 -30 -51 7 -40 16 6 37 54 27 64 -1 2 -17 -9 -34
-24z"/>
<path d="M767 2011 c3 -12 10 -21 15 -21 13 0 6 32 -9 37 -7 3 -9 -3 -6 -16z"/>
<path d="M539 1983 l-24 -28 28 24 c25 23 32 31 24 31 -2 0 -14 -12 -28 -27z"/>
<path d="M625 1980 c-3 -11 -10 -20 -14 -20 -4 0 -13 -12 -19 -26 -7 -14 -17
-22 -22 -19 -6 3 -10 -1 -10 -10 0 -9 -6 -15 -12 -13 -17 6 -62 -40 -78 -79
-10 -27 -9 -37 4 -64 9 -18 14 -41 10 -51 -3 -10 -2 -18 2 -18 12 0 74 44 74
52 0 18 51 60 65 54 13 -5 14 -2 4 17 -6 12 -8 19 -4 14 5 -4 25 19 46 52 20
32 42 62 48 65 6 4 11 14 11 22 0 17 -50 17 -61 0 -4 -5 -12 -5 -19 -1 -10 6
-9 9 0 15 7 4 9 13 6 19 -11 17 -24 13 -31 -9z"/>
<path d="M743 1984 c-3 -8 -1 -20 6 -27 8 -8 11 -4 11 16 0 30 -7 35 -17 11z"/>
<path d="M3031 1974 c0 -11 3 -14 6 -6 3 7 2 16 -1 19 -3 4 -6 -2 -5 -13z"/>
<path d="M3728 1962 c-10 -2 -18 -7 -18 -12 0 -10 39 -20 44 -11 8 13 -9 27
-26 23z"/>
<path d="M484 1938 l-19 -23 23 19 c21 18 27 26 19 26 -2 0 -12 -10 -23 -22z"/>
<path d="M3280 1930 c0 -5 5 -10 10 -10 6 0 10 -7 10 -15 0 -8 7 -15 15 -15 8
0 15 3 15 8 -1 11 -50 44 -50 32z"/>
<path d="M382 1836 c-40 -56 -221 -419 -277 -556 -24 -58 -57 -147 -74 -199
l-31 -94 0 -308 c0 -169 4 -310 8 -313 5 -3 10 -18 10 -33 4 -70 26 -212 44
-285 l12 -48 58 0 c55 0 58 1 53 23 -12 56 -18 95 -19 130 0 21 -5 41 -11 45
-9 6 -10 23 -6 90 2 38 25 20 31 -24 3 -24 10 -38 18 -36 6 1 12 -2 12 -8 0
-5 -7 -10 -15 -10 -9 0 -15 -9 -15 -21 0 -19 1 -19 16 -5 16 16 39 22 31 8 -3
-4 -6 -27 -8 -52 -1 -25 -7 -51 -12 -57 -7 -9 -5 -13 7 -13 9 0 16 8 16 18 1
16 1 16 11 -1 6 -10 8 -28 5 -40 -8 -31 11 -47 59 -47 40 0 43 2 47 30 3 16 1
33 -2 37 -9 10 -46 192 -65 318 -12 78 -14 150 -10 325 4 124 9 241 11 260 3
19 7 85 9 145 3 117 14 197 24 191 3 -2 17 14 31 35 23 38 25 39 33 17 5 -14
4 -24 -2 -26 -16 -5 -13 -22 4 -22 7 0 19 -8 24 -17 10 -17 10 -16 10 2 0 11
-6 38 -15 60 -19 53 -35 222 -28 310 2 39 4 81 4 95 0 13 9 44 20 68 12 24 19
46 17 48 -2 2 -18 -16 -35 -40z m-171 -926 c1 -30 1 -57 0 -60 -1 -3 -3 -58
-5 -124 -3 -65 -9 -123 -14 -128 -6 -6 -6 -24 -1 -46 13 -59 -6 -73 -24 -17
-14 41 -15 46 -1 41 12 -4 12 -2 4 14 -11 21 -14 183 -3 194 4 4 8 30 9 58 2
28 7 55 13 61 6 6 11 24 11 41 0 52 9 22 11 -34z"/>
<path d="M3377 1859 c7 -7 15 -10 18 -7 3 3 -2 9 -12 12 -14 6 -15 5 -6 -5z"/>
<path d="M365 1290 c3 -5 11 -10 16 -10 6 0 7 5 4 10 -3 6 -11 10 -16 10 -6 0
-7 -4 -4 -10z"/>
<path d="M985 1135 c4 -22 18 -74 31 -115 13 -41 24 -86 24 -100 0 -14 7 -50
15 -80 9 -30 18 -88 20 -129 3 -40 7 -76 9 -80 3 -4 7 -29 11 -57 3 -27 8 -56
10 -64 5 -17 16 -87 18 -112 1 -10 5 -18 9 -18 5 0 8 -12 8 -27 -1 -41 10
-125 20 -148 5 -11 14 -62 21 -112 l12 -93 39 0 40 0 -6 48 c-3 26 -13 121
-21 212 -20 208 -61 396 -136 623 -58 175 -75 216 -112 267 l-19 25 7 -40z"/>
<path d="M404 1030 c4 -47 13 -103 20 -125 8 -22 16 -66 19 -97 3 -32 11 -66
16 -77 6 -11 11 -33 11 -49 0 -16 6 -35 14 -41 7 -6 16 -26 20 -43 3 -17 13
-39 22 -47 8 -9 21 -25 29 -36 14 -21 33 -16 20 5 -4 7 -9 29 -10 50 -2 21
-10 50 -18 66 -20 40 -57 178 -64 239 -2 27 -9 55 -14 61 -5 6 -16 39 -25 75
-9 35 -23 73 -31 84 -14 18 -14 12 -9 -65z"/>
<path d="M4081 174 c0 -11 3 -14 6 -6 3 7 2 16 -1 19 -3 4 -6 -2 -5 -13z"/>
<path d="M4082 90 c0 -19 2 -27 5 -17 2 9 2 25 0 35 -3 9 -5 1 -5 -18z"/>
</g>
</svg>
